<?xml version="1.0" encoding="UTF-8" standalone="no"?>
<!-- Created with Inkscape (http://www.inkscape.org/) -->

<svg
   xmlns:dc="http://purl.org/dc/elements/1.1/"
   xmlns:cc="http://creativecommons.org/ns#"
   xmlns:rdf="http://www.w3.org/1999/02/22-rdf-syntax-ns#"
   xmlns:svg="http://www.w3.org/2000/svg"
   xmlns="http://www.w3.org/2000/svg"
   xmlns:sodipodi="http://sodipodi.sourceforge.net/DTD/sodipodi-0.dtd"
   xmlns:inkscape="http://www.inkscape.org/namespaces/inkscape"
   width="80"
   height="80"
   viewBox="0 0 79.999996 80.000003"
   id="svg4628"
   version="1.1"
   inkscape:version="0.91 r13725"
   sodipodi:docname="3D-Printing.svg">
  <defs
     id="defs4630" />
  <sodipodi:namedview
     id="base"
     pagecolor="#ffffff"
     bordercolor="#666666"
     borderopacity="1.0"
     inkscape:pageopacity="0.0"
     inkscape:pageshadow="2"
     inkscape:zoom="1.979899"
     inkscape:cx="46.836779"
     inkscape:cy="-8.4139448"
     inkscape:document-units="px"
     inkscape:current-layer="layer1"
     showgrid="false"
     inkscape:window-width="1436"
     inkscape:window-height="855"
     inkscape:window-x="0"
     inkscape:window-y="1"
     inkscape:window-maximized="1"
     fit-margin-top="0"
     fit-margin-left="0"
     fit-margin-right="0"
     fit-margin-bottom="0"
     units="px" />
  <metadata
     id="metadata4633">
    <rdf:RDF>
      <cc:Work
         rdf:about="">
        <dc:format>image/svg+xml</dc:format>
        <dc:type
           rdf:resource="http://purl.org/dc/dcmitype/StillImage" />
        <dc:title></dc:title>
      </cc:Work>
    </rdf:RDF>
  </metadata>
  <g
     inkscape:label="Capa 1"
     inkscape:groupmode="layer"
     id="layer1"
     transform="translate(-106.7204,-186.65917)">
    <g
       id="g3820"
       transform="matrix(0.64416388,0,0,0.64416388,117.7327,197.50496)">
      <g
         id="g3441"
         display="none"
         style="display:none">
        <path
           id="path3443"
           d="m 78.292,6.908 -2.885,0 c -0.705,0 -1.328,0.081 -1.703,0.516 -0.233,0.271 -0.374,0.678 -0.374,1.294 l 0,6.225 c 0,1.604 0.932,1.808 2.077,1.808 l 2.751,0 0.134,0 c 1.147,0 2.077,-0.204 2.077,-1.808 l 0,-6.225 c 0,-1.604 -0.93,-1.81 -2.077,-1.81 z"
           display="inline"
           inkscape:connector-curvature="0"
           style="display:inline" />
        <polygon
           id="polygon3445"
           points="30.595,19.843 30.595,19.843 30.595,22.447 30.595,22.447 30.595,22.447 30.595,22.447 30.595,19.843 30.595,19.843 "
           display="inline"
           style="display:inline" />
        <g
           id="g3447"
           display="inline"
           style="display:inline">
          <path
             id="path3449"
             d="m 82.398,82.986 c 0,0.922 -0.34,0.762 -0.758,0.762 l 0,0 c -0.416,0 -0.754,0.16 -0.754,-0.762 l 0,-7.658 c 0,-0.926 0.338,-0.842 0.754,-0.842 l 0,0 c 0.418,0 0.758,-0.084 0.758,0.842 l 0,7.658 z"
             inkscape:connector-curvature="0" />
          <path
             id="path3451"
             d="m 9.404,82.986 c 0,0.922 -0.338,0.762 -0.755,0.762 l 0,0 c -0.417,0 -0.755,0.16 -0.755,-0.762 l 0,-7.658 c 0,-0.926 0.338,-0.842 0.755,-0.842 l 0,0 c 0.417,0 0.755,-0.084 0.755,0.842 l 0,7.658 z"
             inkscape:connector-curvature="0" />
        </g>
        <path
           id="path3453"
           d="m 82.294,15.86 c 0,0.924 -0.337,0.761 -0.754,0.761 l 0,0 c -0.418,0 -0.757,0.164 -0.757,-0.761 l 0,-7.658 c 0,-0.923 0.339,-0.84 0.757,-0.84 l 0,0 c 0.417,0 0.754,-0.083 0.754,0.84 l 0,7.658 z"
           display="inline"
           inkscape:connector-curvature="0"
           style="display:inline" />
        <path
           id="path3455"
           d="m 7.997,15.86 c 0,0.924 0.36,0.761 0.803,0.761 l 0,0 c 0.444,0 0.803,0.164 0.803,-0.761 l 0,-7.658 C 9.603,7.279 9.244,7.362 8.8,7.362 l 0,0 c -0.443,0 -0.803,-0.083 -0.803,0.84 l 0,7.658 z"
           display="inline"
           inkscape:connector-curvature="0"
           style="display:inline" />
        <path
           id="path3457"
           d="m 80.467,81.369 c 0,1.275 -1.037,2.314 -2.313,2.314 l -66.014,0 c -1.278,0 -2.314,-1.039 -2.314,-2.314 l 0,-4.494 c 0,-1.279 1.036,-2.314 2.314,-2.314 l 66.014,0 c 1.275,0 2.313,1.035 2.313,2.314 l 0,4.494 z M 75.57,77.618 c -0.868,0 -1.573,0.704 -1.573,1.573 0,0.873 0.705,1.578 1.573,1.578 0.871,0 1.574,-0.705 1.574,-1.578 0.002,-0.869 -0.703,-1.573 -1.574,-1.573 z m -60.715,0.249 c 0,-0.533 -0.431,-0.965 -0.964,-0.965 l 0,0 c -0.533,0 -0.964,0.432 -0.964,0.965 l 0,2.506 c 0,0.533 0.431,0.965 0.964,0.965 l 0,0 c 0.533,0 0.964,-0.432 0.964,-0.965 l 0,-2.506 z m 2.703,0 c 0,-0.533 -0.434,-0.965 -0.965,-0.965 l 0,0 c -0.534,0 -0.966,0.432 -0.966,0.965 l 0,2.506 c 0,0.533 0.432,0.965 0.966,0.965 l 0,0 c 0.531,0 0.965,-0.432 0.965,-0.965 l 0,-2.506 z"
           display="inline"
           inkscape:connector-curvature="0"
           style="display:inline" />
        <path
           id="path3459"
           d="m 15.042,6.789 -2.885,0 c -0.705,0 -1.328,0.081 -1.703,0.516 C 10.22,7.576 10.08,7.983 10.08,8.599 l 0,6.225 c 0,1.604 0.932,1.808 2.077,1.808 l 2.751,0 0.134,0 c 1.147,0 2.077,-0.204 2.077,-1.808 l 0,-6.225 c 0,-1.604 -0.93,-1.81 -2.077,-1.81 z"
           display="inline"
           inkscape:connector-curvature="0"
           style="display:inline" />
        <rect
           id="rect3461"
           height="1.609"
           width="48.992001"
           display="inline"
           y="48.216"
           x="21.16"
           style="display:inline" />
        <path
           id="path3463"
           d="m 18.323,9.447 53.768,0 c 0.294,0 0.531,0.233 0.531,0.521 l 0,-1.43 c 0,-0.678 0.153,-1.126 0.411,-1.424 l -55.66,0 c 0.261,0.298 0.416,0.747 0.416,1.424 l 0,1.43 c 0,-0.288 0.24,-0.521 0.534,-0.521 z"
           display="inline"
           inkscape:connector-curvature="0"
           style="display:inline" />
        <path
           id="path3465"
           d="m 74.908,17.378 c -1.262,0 -2.286,-0.225 -2.286,-1.99 l 0,-5.421 c 0,0.288 -0.237,0.521 -0.531,0.521 l -38.028,0 c 0.359,0.471 0.583,1.081 0.583,1.757 l 0,3.198 34.937,0 c 0.263,0 0.478,0.21 0.478,0.47 0,0.26 -0.215,0.47 -0.478,0.47 l -34.948,0 c -0.06,1.415 -1.065,2.542 -2.305,2.542 l -1.455,0 0,1.533 -0.708,0 0,-1.533 -1.309,0 c -1.239,0 -2.244,-1.128 -2.304,-2.542 l -4.917,0 c -0.263,0 -0.477,-0.21 -0.477,-0.47 0,-0.26 0.214,-0.47 0.477,-0.47 l 4.906,0 0,-3.198 c 0,-0.676 0.225,-1.286 0.583,-1.757 l -8.803,0 c -0.294,0 -0.535,-0.233 -0.535,-0.521 l 0,5.421 c 0,1.766 -1.036,1.99 -2.314,1.99 l -3.119,0 0,56.31 6.939,0 0,-19.943 -3.504,0 c -0.619,0 -0.61,-0.877 -0.61,-1.96 0,-1.084 -0.009,-1.96 0.61,-1.96 l 3.505,0 0,-1.609 -3.729,0 c -0.212,0 -0.385,-0.172 -0.385,-0.386 0,-0.214 0.173,-0.387 0.385,-0.387 l 3.729,0 0,-27.123 c 0,-0.656 0.417,-1.189 0.932,-1.189 0.516,0 0.933,0.533 0.933,1.189 l 0,27.124 48.992,0 0,-27.124 c 0,-0.656 0.423,-1.189 0.935,-1.189 0.517,0 0.933,0.533 0.933,1.189 l 0,27.124 3.347,0 c 0.214,0 0.386,0.173 0.386,0.387 0,0.214 -0.172,0.386 -0.386,0.386 l -3.347,0 0,1.609 3.186,0 c 0.615,0 0.547,0.876 0.547,1.96 0,1.083 0.068,1.96 -0.547,1.96 l -3.186,0 0,19.942 5.916,0 0,-56.31 -3.028,0 z"
           display="inline"
           inkscape:connector-curvature="0"
           style="display:inline" />
        <rect
           id="rect3467"
           height="19.941999"
           width="48.992001"
           display="inline"
           y="53.744999"
           x="21.16"
           style="display:inline" />
      </g>
      <g
         inkscape:export-ydpi="300"
         inkscape:export-xdpi="300"
         id="g3469">
        <path
           id="path3471"
           d="m 75.313,81.069 c -1.024,0 -1.858,-0.833 -1.858,-1.857 0,-1.024 0.834,-1.858 1.858,-1.858 1.024,0 1.857,0.834 1.857,1.858 0,1.024 -0.832,1.857 -1.857,1.857 z m 0,-3.139 c -0.707,0 -1.282,0.575 -1.282,1.282 0,0.706 0.575,1.281 1.282,1.281 0.706,0 1.281,-0.575 1.281,-1.281 0.001,-0.707 -0.574,-1.282 -1.281,-1.282 z"
           inkscape:connector-curvature="0"
           style="fill:#000000" />
        <path
           id="path3473"
           d="m 14.824,80.388 c 0,0.531 -0.431,0.961 -0.961,0.961 l 0,0 c -0.531,0 -0.961,-0.43 -0.961,-0.961 l 0,-2.497 c 0,-0.531 0.43,-0.962 0.961,-0.962 l 0,0 c 0.53,0 0.961,0.431 0.961,0.962 l 0,2.497 z"
           inkscape:connector-curvature="0"
           style="fill:#000000" />
        <path
           id="path3475"
           d="m 17.515,80.388 c 0,0.531 -0.431,0.961 -0.96,0.961 l 0,0 c -0.531,0 -0.961,-0.43 -0.961,-0.961 l 0,-2.497 c 0,-0.531 0.43,-0.962 0.961,-0.962 l 0,0 c 0.53,0 0.96,0.431 0.96,0.962 l 0,2.497 z"
           inkscape:connector-curvature="0"
           style="fill:#000000" />
        <path
           id="path3477"
           d="m 81.36,74.415 c -0.415,0 -0.752,-0.083 -0.752,0.838 l 0,7.629 c 0,0.921 0.337,0.76 0.752,0.76 0.416,0 0.753,0.161 0.753,-0.76 l 0,-7.629 c 0,-0.921 -0.337,-0.838 -0.753,-0.838 z"
           inkscape:connector-curvature="0"
           style="fill:#000000" />
        <path
           id="path3479"
           d="m 8.64,74.415 c -0.416,0 -0.752,-0.083 -0.752,0.838 l 0,7.629 c 0,0.921 0.337,0.76 0.752,0.76 0.415,0 0.753,0.161 0.753,-0.76 l 0,-7.629 c 0,-0.921 -0.337,-0.838 -0.753,-0.838 z"
           inkscape:connector-curvature="0"
           style="fill:#000000" />
        <path
           id="path3481"
           d="m 81.229,7.542 c -0.416,0 -0.753,-0.084 -0.753,0.837 l 0,0.439 c 0,-2.369 -1.798,-2.369 -2.661,-2.369 l -3.163,0 c -0.657,0 -1.853,0.007 -2.387,1.055 l -54.411,0 C 17.314,6.457 16.106,6.449 15.44,6.449 l -3.203,0 c -0.813,0 -2.425,0.026 -2.646,1.938 l 0,-0.008 c 0,-0.921 -0.358,-0.837 -0.8,-0.837 -0.442,0 -0.8,-0.084 -0.8,0.837 l 0,7.629 c 0,0.921 0.358,0.759 0.8,0.759 0.426,0 0.771,0.141 0.795,-0.675 0.193,1.636 1.41,1.882 2.267,1.914 l 0,56.23 c -1.358,0.136 -2.426,1.272 -2.426,2.665 l 0,4.477 c 0,1.483 1.207,2.691 2.691,2.691 l 65.765,0 c 1.483,0 2.691,-1.208 2.691,-2.691 l 0,-4.478 c 0,-1.393 -1.068,-2.529 -2.427,-2.665 l 0,-56.228 c 0.922,-0.027 2.329,-0.267 2.329,-2.362 l 0,0.363 c 0,0.921 0.337,0.759 0.753,0.759 0.415,0 0.753,0.162 0.753,-0.759 l 0,-7.629 c 0,-0.921 -0.337,-0.837 -0.753,-0.837 z m -9.202,0.923 c -0.012,0.119 -0.036,0.22 -0.036,0.354 l 0,0.936 C 71.943,9.741 71.895,9.726 71.843,9.726 l -53.564,0 c -0.053,0 -0.101,0.015 -0.148,0.029 l 0,-0.937 c 0,-0.134 -0.025,-0.234 -0.036,-0.354 l 53.932,0 z m -39.794,2.767 c 1.06,0 1.922,1.021 1.922,2.277 l 0,3.994 c 0,1.256 -0.862,2.278 -1.922,2.278 l -3.459,0 c -1.06,0 -1.921,-1.022 -1.921,-2.278 l 0,-3.994 c 0,-1.256 0.862,-2.277 1.921,-2.277 l 3.459,0 z m -14.102,4.413 0,-4.912 c 0.048,0.014 0.096,0.029 0.148,0.029 l 9.353,0 c -0.912,0.488 -1.548,1.532 -1.548,2.747 l 0,2.305 -4.504,0 c -0.262,0 -0.475,0.291 -0.475,0.649 0,0.358 0.213,0.649 0.475,0.649 l 4.504,0 0,0.391 c 0,1.68 1.207,3.046 2.69,3.046 l 1.25,0 0,2.128 0.961,0 0,-2.128 1.249,0 c 1.484,0 2.691,-1.367 2.691,-3.046 l 0,-0.391 34.42,0 c 0.263,0 0.476,-0.291 0.476,-0.649 0,-0.358 -0.213,-0.649 -0.476,-0.649 l -34.42,0 0,-2.305 c 0,-1.215 -0.637,-2.259 -1.548,-2.747 l 38.467,0 c 0.053,0 0.101,-0.015 0.148,-0.029 l 0,4.912 c 0,2.367 1.798,2.367 2.661,2.367 l 2.534,0 0,56.198 -5.411,0 0,-19.835 3.169,0 c 0.616,0 0.547,-0.875 0.547,-1.953 0,-1.078 0.069,-1.953 -0.547,-1.953 l -3.169,0 0,-1.604 3.33,0 c 0.213,0 0.386,-0.172 0.386,-0.384 0,-0.212 -0.173,-0.385 -0.386,-0.385 l -3.33,0 0,-27.54 c 0,-0.653 -0.416,-1.184 -0.93,-1.184 -0.513,0 -0.929,0.53 -0.929,1.184 l 0,27.54 -48.812,0 0,-27.54 c 0,-0.653 -0.417,-1.184 -0.929,-1.184 -0.513,0 -0.929,0.53 -0.929,1.184 l 0,27.54 -3.715,0 c -0.212,0 -0.385,0.173 -0.385,0.385 0,0.212 0.172,0.384 0.385,0.384 l 3.715,0 0,1.604 -3.493,0 c -0.617,0 -0.607,0.875 -0.607,1.953 0,1.078 -0.009,1.953 0.607,1.953 l 3.493,0 0,19.834 -6.433,0 0,-56.198 2.625,0 c 0.874,0 2.692,0 2.692,-2.366 z m 2.974,34.824 0,-1.604 48.812,0 0,1.604 -48.812,0 z m 48.812,3.906 0,19.834 -48.812,0 0,-19.834 48.812,0 z m -59.602,-38.73 0,-6.827 c 0,-1.361 0.62,-1.601 1.921,-1.601 l 3.203,0 c 1.302,0 1.922,0.24 1.922,1.601 l 0,6.826 c 0,1.359 -0.62,1.598 -1.922,1.598 l -3.203,0 c -1.301,10e-4 -1.921,-0.239 -1.921,-1.597 z m 69.49,61.255 0,4.477 c 0,1.06 -0.862,1.922 -1.922,1.922 l -65.765,0 c -1.06,0 -1.922,-0.862 -1.922,-1.922 l 0,-4.477 c 0,-1.06 0.862,-1.922 1.922,-1.922 l 65.765,0 c 1.059,0.001 1.922,0.863 1.922,1.922 z M 79.707,15.645 c 0,1.359 -0.609,1.598 -1.892,1.598 l -3.163,0 c -1.282,0 -1.892,-0.239 -1.892,-1.598 l 0,-6.827 c 0,-1.361 0.609,-1.601 1.892,-1.601 l 3.163,0 c 1.282,0 1.892,0.24 1.892,1.601 l 0,6.827 z"
           inkscape:connector-curvature="0"
           style="fill:#000000" />
        <path
           id="path3483"
           d="m 41.019,35.069 -0.405,-7.814 4.648,-3.436 6.199,1.281 1.211,5.591 -1.211,3.234 0.54,3.839 4.579,0.608 2.966,6.063 -1.616,4.221 -19.256,-0.08 -2.574,-4.815 1.078,-4.312 3.84,-0.943 2.29,-2.268 m 2.066,-9.523 1.516,0.943 1.448,3.436 1.954,1.078 1.278,-2.223 -1.347,-3.739 -4.716,-1.247 -3.301,2.492 3.168,-0.74 z m 2.452,13.138 3.744,1.685 5.122,3.435 1.885,-0.808 -2.424,-4.782 -3.977,-0.405 -4.35,0.875 z"
           inkscape:connector-curvature="0"
           style="fill:#000000" />
      </g>
    </g>
  </g>
</svg>
