<?xml version="1.0" encoding="UTF-8" standalone="no"?>
<svg
   xmlns:dc="http://purl.org/dc/elements/1.1/"
   xmlns:cc="http://creativecommons.org/ns#"
   xmlns:rdf="http://www.w3.org/1999/02/22-rdf-syntax-ns#"
   xmlns:svg="http://www.w3.org/2000/svg"
   xmlns="http://www.w3.org/2000/svg"
   xmlns:sodipodi="http://sodipodi.sourceforge.net/DTD/sodipodi-0.dtd"
   xmlns:inkscape="http://www.inkscape.org/namespaces/inkscape"
   version="1.1"
   x="0px"
   y="0px"
   viewBox="-949 951 80 80"
   xml:space="preserve"
   id="svg2"
   inkscape:version="0.91 r13725"
   sodipodi:docname="Local.svg"
   width="80"
   height="80"><metadata
     id="metadata36"><rdf:RDF><cc:Work
         rdf:about=""><dc:format>image/svg+xml</dc:format><dc:type
           rdf:resource="http://purl.org/dc/dcmitype/StillImage" /><dc:title></dc:title></cc:Work></rdf:RDF></metadata><defs
     id="defs34" /><sodipodi:namedview
     pagecolor="#ffffff"
     bordercolor="#666666"
     borderopacity="1"
     objecttolerance="10"
     gridtolerance="10"
     guidetolerance="10"
     inkscape:pageopacity="0"
     inkscape:pageshadow="2"
     inkscape:window-width="1436"
     inkscape:window-height="855"
     id="namedview32"
     showgrid="false"
     fit-margin-top="0"
     fit-margin-left="0"
     fit-margin-right="0"
     fit-margin-bottom="0"
     inkscape:zoom="5.3400704"
     inkscape:cx="50.659247"
     inkscape:cy="44.200901"
     inkscape:window-x="0"
     inkscape:window-y="1"
     inkscape:window-maximized="1"
     inkscape:current-layer="svg2" /><path
     inkscape:connector-curvature="0"
     id="path10"
     d="m -923.19643,967.32653 -5.56123,0 c -2.70408,0 -4.94898,2.19388 -4.94898,4.94898 l 0,18.41837 10.51021,0 0,-23.36735 z" /><polygon
     id="polygon12"
     points="-923,985.5 -900.9,978.8 -900.9,954.6 -923,954.6 "
     transform="matrix(0.51020408,0,0,0.51020408,-450.28827,480.28572)" /><path
     inkscape:connector-curvature="0"
     id="path14"
     d="m -933.70664,1011.051 c 0,2.7041 2.19388,4.949 4.94898,4.949 l 5.56123,0 0,-13.2143 -10.51021,0 0,8.2653 z" /><polygon
     id="polygon16"
     points="-947.5,1020.2 -879.8,1020.2 -892.3,1004.2 -947.5,1004.2 "
     transform="matrix(0.51020408,0,0,0.51020408,-450.28827,480.28572)" /><rect
     id="rect18"
     height="13.214286"
     width="11.683673"
     y="1002.7857"
     x="-921.20667" /><path
     inkscape:connector-curvature="0"
     id="path20"
     d="m -907.53317,1002.7857 0,13.2143 17.60204,0 c 0.76531,0 1.53062,-0.2041 2.14286,-0.5102 l -9.84694,-12.7041 -9.89796,0 z" /><path
     inkscape:connector-curvature="0"
     id="path22"
     d="m -892.125,992.12245 c -0.76531,0 -1.4796,-0.40816 -1.78572,-1.12245 l -6.58163,-12.90816 c -1.12245,-2.14286 -1.27551,-4.7449 -0.5102,-7.14286 0.45918,-1.42857 1.22449,-2.65306 2.19387,-3.67347 l -9.13265,0 0,13.82653 -13.26531,4.03062 0,5.45918 16.63266,0 7.85714,10.15306 11.68367,0 0,-20.2551 c -1.98979,3.92857 -5.30612,10.35714 -5.35714,10.45918 -0.30612,0.71429 -0.96939,1.17347 -1.73469,1.17347 z" /><path
     inkscape:connector-curvature="0"
     id="path24"
     d="m -886.20664,1014.2653 c 0.76531,-0.8673 1.17347,-1.9898 1.17347,-3.2143 l 0,-8.2653 -10.10204,0 8.92857,11.4796 z" /><path
     inkscape:connector-curvature="0"
     id="path26"
     d="m -899.21684,977.42858 6.58163,12.90816 c 0.15306,0.2551 0.35715,0.30612 0.45919,0.30612 0.051,0 0.15306,0 0.20408,-0.051 0.10204,-0.051 0.20408,-0.10204 0.2551,-0.2551 0.051,-0.10204 5.35714,-10.45918 6.58163,-12.90816 1.12245,-2.29592 1.12245,-4.79592 0,-7.09184 -0.71428,-1.37755 -1.73469,-2.44898 -2.95918,-3.21429 -1.22449,-0.7653 -2.65306,-1.12245 -4.08163,-1.12245 -1.17347,0 -2.39796,0.25511 -3.52041,0.81633 -1.83674,0.91837 -3.26531,2.55102 -3.92857,4.59184 -0.61225,2.04081 -0.51021,4.23469 0.40816,6.02041 z m 7.09184,-8.06123 c 2.5,0 4.48979,2.04082 4.48979,4.4898 0,2.5 -1.98979,4.48979 -4.48979,4.48979 -2.5,0 -4.4898,-1.98979 -4.4898,-4.48979 0,-2.44898 1.9898,-4.4898 4.4898,-4.4898 z" /></svg>