<svg xmlns:dc="http://purl.org/dc/elements/1.1/" xmlns:cc="http://creativecommons.org/ns#" xmlns:rdf="http://www.w3.org/1999/02/22-rdf-syntax-ns#" xmlns:svg="http://www.w3.org/2000/svg" xmlns="http://www.w3.org/2000/svg" xmlns:sodipodi="http://sodipodi.sourceforge.net/DTD/sodipodi-0.dtd" xmlns:inkscape="http://www.inkscape.org/namespaces/inkscape" version="1.1" x="0px" y="0px" viewBox="0 0 100 125"><g transform="translate(0,-952.36218)"><path style="color:#000000;enable-background:accumulate;" d="M 49.96875,962.36215 C 40.026791,962.36215 32,970.0272 32,980.1434 c 0,2.3232 0.664062,5.80065 1.4375,7.84375 L 50,1022.3622 66.5625,987.98715 C 67.34021,985.94335 68,982.4676 68,980.1434 68,970.0272 59.91082,962.36215 49.96875,962.36215 z m 0.03125,9 c 4.970567,0 9,4.0295 9,9 0,4.9704 -4.029433,9 -9,9 -4.970443,0 -9,-4.0296 -9,-9 0,-4.9705 4.029557,-9 9,-9 z m -33.46875,31.00005 15.4375,19.4062 9.46875,-8 -5.5,-11.4062 -19.40625,0 z m 47.53125,0 -4.5625,10 28,0 -1.5,-10 -21.9375,0 z M 13.59375,1005.0496 8,1042.3622 l 35.28125,0 -29.6875,-37.3126 z M 88,1015.7059 l 0,0.6563 -25.34375,0 7.96875,10 18.96875,0 L 88,1015.7059 z m -30.59375,0.4375 -3.8125,7.9375 c -0.653718,1.3369 -2.10561,2.25 -3.59375,2.25 -1.48814,0 -2.940032,-0.9131 -3.59375,-2.25 l -3.1875,-6.625 -8.78125,7.4063 13.9375,17.5 29.90625,0 -20.875,-26.2188 z M 90,1029.0184 l 0,1.3438 -16.1875,0 9.5625,12 8.625,0 -2,-13.3438 z" fill="#000000" stroke="none" marker="none" visibility="visible" display="inline" overflow="visible"/></g><text x="0" y="115" fill="#000000" font-size="5px" font-weight="bold" font-family="'Helvetica Neue', Helvetica, Arial-Unicode, Arial, Sans-serif">Created by Numero Uno</text><text x="0" y="120" fill="#000000" font-size="5px" font-weight="bold" font-family="'Helvetica Neue', Helvetica, Arial-Unicode, Arial, Sans-serif">from the Noun Project</text></svg>