<?xml version="1.0" encoding="UTF-8" standalone="no"?>
<!-- Created with Inkscape (http://www.inkscape.org/) -->

<svg
   xmlns:dc="http://purl.org/dc/elements/1.1/"
   xmlns:cc="http://creativecommons.org/ns#"
   xmlns:rdf="http://www.w3.org/1999/02/22-rdf-syntax-ns#"
   xmlns:svg="http://www.w3.org/2000/svg"
   xmlns="http://www.w3.org/2000/svg"
   xmlns:sodipodi="http://sodipodi.sourceforge.net/DTD/sodipodi-0.dtd"
   xmlns:inkscape="http://www.inkscape.org/namespaces/inkscape"
   width="282.22223mm"
   height="46.075321mm"
   viewBox="0 0 1000 163.25901"
   id="svg14361"
   version="1.1"
   inkscape:version="0.91 r13725"
   sodipodi:docname="GF-Title.svg">
  <defs
     id="defs14363" />
  <sodipodi:namedview
     id="base"
     pagecolor="#ffffff"
     bordercolor="#666666"
     borderopacity="1.0"
     inkscape:pageopacity="0.0"
     inkscape:pageshadow="2"
     inkscape:zoom="0.35"
     inkscape:cx="182.23297"
     inkscape:cy="-231.00891"
     inkscape:document-units="px"
     inkscape:current-layer="layer1"
     showgrid="false"
     fit-margin-top="0"
     fit-margin-left="0"
     fit-margin-right="0"
     fit-margin-bottom="0"
     inkscape:window-width="1436"
     inkscape:window-height="855"
     inkscape:window-x="0"
     inkscape:window-y="1"
     inkscape:window-maximized="1" />
  <metadata
     id="metadata14366">
    <rdf:RDF>
      <cc:Work
         rdf:about="">
        <dc:format>image/svg+xml</dc:format>
        <dc:type
           rdf:resource="http://purl.org/dc/dcmitype/StillImage" />
        <dc:title></dc:title>
      </cc:Work>
    </rdf:RDF>
  </metadata>
  <g
     inkscape:label="Capa 1"
     inkscape:groupmode="layer"
     id="layer1"
     transform="translate(287.23297,-138.09428)">
    <g
       transform="matrix(0.98021889,0,0,0.98021889,-5404.1233,-368.5123)"
       id="g4200">
      <g
         id="g4202">
        <path
           style="fill:#4ab58c"
           inkscape:connector-curvature="0"
           d="m 5745.167,663.37 0,16.83 -19.234,0 0,-90.73 65.928,0 0,16.704 -46.693,0 0,20.373 41.252,0 0,17.589 -41.252,0 0,19.234 z"
           id="path4204" />
        <path
           style="fill:#4ab58c"
           inkscape:connector-curvature="0"
           d="m 5787.686,680.2 41,-90.224 19.993,0 40.367,90.224 -19.234,0 -8.858,-19.994 -45.682,0 -9.49,19.994 -18.096,0 z m 51.249,-73.267 -15.185,34.925 29.99,0 -14.679,-34.925 -0.126,0 z"
           id="path4206" />
        <path
           style="fill:#4ab58c"
           inkscape:connector-curvature="0"
           d="m 5898.411,589.85 42.518,0 c 17.21,0 28.852,5.568 28.852,22.398 0,9.111 -4.176,14.932 -12.274,18.854 11.136,3.164 16.577,11.642 16.577,22.904 0,18.348 -15.564,26.194 -31.888,26.194 l -43.783,0 0,-90.35 z m 19.867,36.57 20.12,0 c 7.086,0 12.148,-3.164 12.148,-10.756 0,-8.478 -6.58,-10.376 -13.667,-10.376 l -18.602,0 0,21.132 z m 0,38.342 21.259,0 c 7.719,0 14.679,-2.531 14.679,-11.895 0,-9.237 -5.694,-12.907 -14.299,-12.907 l -21.639,0 0,24.802 z"
           id="path4208" />
        <path
           style="fill:#4ab58c"
           inkscape:connector-curvature="0"
           d="m 5985.6,679.567 0,-90.097 19.487,0 0,73.394 46.314,0 0,16.703 -65.801,0 z"
           id="path4210" />
        <path
           style="fill:#4ab58c"
           inkscape:connector-curvature="0"
           d="m 6053.933,680.2 41,-90.224 19.993,0 40.367,90.224 -19.234,0 -8.858,-19.994 -45.682,0 -9.49,19.994 -18.096,0 z m 51.249,-73.267 -15.185,34.925 29.99,0 -14.679,-34.925 -0.126,0 z"
           id="path4212" />
        <path
           style="fill:#4ab58c"
           inkscape:connector-curvature="0"
           d="m 6164.658,589.85 42.518,0 c 17.21,0 28.852,5.568 28.852,22.398 0,9.111 -4.176,14.932 -12.274,18.854 11.136,3.164 16.577,11.642 16.577,22.904 0,18.348 -15.564,26.194 -31.888,26.194 l -43.783,0 0,-90.35 z m 19.867,36.57 20.12,0 c 7.086,0 12.148,-3.164 12.148,-10.756 0,-8.478 -6.58,-10.376 -13.667,-10.376 l -18.602,0 0,21.132 z m 0,38.342 21.259,0 c 7.719,0 14.679,-2.531 14.679,-11.895 0,-9.237 -5.694,-12.907 -14.299,-12.907 l -21.639,0 0,24.802 z"
           id="path4214" />
      </g>
    </g>
    <g
       transform="matrix(0.98021889,0,0,0.98021889,-5404.1233,-368.5123)"
       id="g4216">
      <g
         id="g4218">
        <path
           style="fill:#4ab58c"
           inkscape:connector-curvature="0"
           d="m 5328.982,630.262 c 2.07,-1.061 4.483,-1.395 7.241,-1.001 2.755,0.398 5.345,1.138 7.765,2.221 2.884,1.231 5.81,2.761 8.782,4.588 -1.72,5.221 -4.737,10.843 -9.044,16.861 -4.311,6.02 -10.237,11.442 -17.789,16.268 -7.55,4.823 -16.814,8.607 -27.793,11.345 -10.978,2.736 -23.942,3.494 -38.888,2.278 -9.887,-0.809 -17.767,-3.627 -23.636,-8.458 -5.871,-4.835 -10.044,-10.898 -12.52,-18.195 -2.475,-7.296 -3.392,-15.476 -2.752,-24.548 0.644,-9.067 2.536,-18.269 5.673,-27.61 3.139,-9.334 7.364,-18.492 12.671,-27.47 5.307,-8.977 11.417,-17.048 18.336,-24.22 -4.565,-2.861 -8.865,-5.713 -12.899,-8.548 -4.036,-2.831 -7.523,-5.4 -10.463,-7.697 -3.628,-2.693 -6.909,-5.247 -9.847,-7.663 3.485,-2.992 7.435,-4.861 11.854,-5.614 4.417,-0.749 9.089,-0.717 14.007,0.098 4.919,0.817 10.038,2.266 15.359,4.346 5.317,2.081 10.566,4.398 15.741,6.94 1.095,-0.527 2.19,-1.084 3.289,-1.673 1.098,-0.585 2.252,-1.138 3.466,-1.662 11.28,-4.905 21.387,-8.434 30.321,-10.578 8.932,-2.145 16.833,-3.286 23.7,-3.421 6.865,-0.137 12.744,0.469 17.633,1.815 4.889,1.345 8.961,2.999 12.219,4.961 3.256,1.963 5.735,4.056 7.442,6.283 1.703,2.228 2.748,4.122 3.131,5.68 0.381,1.56 0.59,3.582 0.626,6.065 0.033,2.487 -0.389,5.183 -1.265,8.088 -0.878,2.906 -2.349,5.806 -4.405,8.703 -2.061,2.896 -4.996,5.595 -8.804,8.094 -3.811,2.502 -8.665,4.616 -14.556,6.343 -5.895,1.732 -13.053,2.825 -21.474,3.285 -8.188,0.476 -16.364,-0.292 -24.524,-2.301 -8.162,-2.007 -16.11,-4.654 -23.842,-7.939 -6.377,6.017 -12.007,12.374 -16.887,19.07 -4.881,6.696 -8.591,13.636 -11.133,20.82 -2.275,6.609 -3.839,13.201 -4.688,19.773 -0.854,6.573 -0.976,12.773 -0.365,18.603 0.609,5.831 1.869,11.135 3.783,15.916 1.91,4.779 4.525,8.655 7.843,11.628 3.314,2.967 7.226,4.879 11.73,5.73 4.502,0.85 9.648,0.32 15.435,-1.591 6.873,-2.326 12.464,-4.958 16.774,-7.902 4.308,-2.943 7.707,-5.998 10.196,-9.168 2.488,-3.165 4.293,-6.314 5.422,-9.443 1.125,-3.126 1.999,-5.972 2.621,-8.539 0.619,-2.564 1.19,-4.779 1.713,-6.641 0.523,-1.86 1.455,-3.168 2.801,-3.92 z m -58.415,-5.143 c -0.077,-0.715 0.085,-1.473 0.486,-2.278 0.276,-0.695 0.795,-1.491 1.557,-2.393 0.761,-0.901 3.523,-5.778 5.007,-6.876 3.213,-2.416 7.984,-6.244 13.868,-8.801 5.882,-2.558 12.728,-4.38 20.537,-5.469 7.807,-1.083 16.434,-1.001 25.882,0.253 9.444,1.256 15.862,2.498 24.606,10.087 1.588,1.378 5.134,8.428 5.371,10.449 0.141,1.666 -0.207,3.598 -1.042,5.795 -0.837,2.198 -2.737,4.396 -5.702,6.586 0.11,0.126 -0.894,-0.406 -3.013,-1.592 -2.121,-1.186 -5.146,-2.542 -9.077,-4.072 -3.933,-1.527 -8.692,-3.072 -14.277,-4.636 -5.585,-1.564 -11.762,-2.629 -18.527,-3.199 -6.769,-0.567 -14.018,-0.453 -21.75,0.342 -7.733,0.795 -15.708,2.729 -23.926,5.804 z m 86.362,-91.866 c -6.803,-0.982 -14.54,-0.097 -23.212,2.653 -8.673,2.753 -17.421,6.829 -26.248,12.232 0.916,0.526 1.775,0.988 2.58,1.39 0.804,0.401 1.667,0.806 2.592,1.214 8.496,4.393 16.307,7.357 23.433,8.89 7.123,1.538 13.303,2.01 18.542,1.426 5.235,-0.585 9.491,-2.083 12.765,-4.495 3.271,-2.411 5.307,-5.429 6.109,-9.049 0.653,-3.154 0.176,-5.637 -1.434,-7.443 -1.611,-1.807 -3.567,-3.249 -5.869,-4.33 -2.653,-1.218 -5.737,-2.045 -9.258,-2.488 z"
           id="path4220" />
        <path
           style="fill:#4ab58c"
           inkscape:connector-curvature="0"
           d="m 5403.578,591.64 c -0.507,0.565 -1.304,1.08 -2.396,1.548 -1.091,0.468 -1.807,0.578 -2.147,0.319 -0.805,-0.4 -1.067,-1.006 -0.783,-1.818 0.284,-0.811 0.678,-1.498 1.185,-2.06 0.877,-0.894 1.474,-2.015 1.789,-3.357 0.313,-1.339 0.285,-2.378 -0.086,-3.108 -0.373,-0.731 -1.131,-0.891 -2.277,-0.487 -1.148,0.407 -2.741,1.853 -4.773,4.336 -1.775,2.026 -2.316,3.742 -1.627,5.14 0.688,1.398 3.076,2.513 7.17,3.339 1.869,0.347 3.663,0.539 5.376,0.576 1.71,0.042 3.482,0.085 5.313,0.13 1.83,0.048 3.72,0.098 5.668,0.15 1.948,0.054 4.091,0.267 6.437,0.638 3.743,0.689 6.468,1.644 8.172,2.866 1.704,1.222 2.711,2.669 3.031,4.344 0.316,1.675 0.09,3.524 -0.675,5.547 -0.769,2.027 -1.752,4.245 -2.956,6.659 -5.467,10.682 -9.832,19.742 -13.098,27.182 -3.267,7.437 -4.866,12.578 -4.792,15.421 0,2.01 0.962,3.309 2.879,3.891 1.917,0.584 3.668,0.449 5.256,-0.408 1.591,-0.973 3.295,-2.292 5.105,-3.961 1.81,-1.669 3.602,-3.518 5.375,-5.543 1.772,-2.027 3.459,-4.116 5.063,-6.271 1.602,-2.153 3.046,-4.14 4.336,-5.959 0.768,-1.02 1.426,-1.659 1.972,-1.924 0.548,-0.263 0.962,-0.271 1.243,-0.019 0.279,0.256 0.407,0.645 0.376,1.174 -0.03,0.53 -0.24,1.082 -0.627,1.65 -1.682,2.503 -3.179,4.844 -4.486,7.015 -1.307,2.171 -2.64,4.252 -3.995,6.242 -1.357,1.993 -2.796,3.86 -4.315,5.604 -1.519,1.748 -3.391,3.44 -5.615,5.086 -1.607,1.21 -3.109,2.126 -4.504,2.755 -1.397,0.629 -2.9,1.074 -4.512,1.337 -1.61,0.261 -3.479,0.36 -5.604,0.296 -2.125,-0.065 -4.656,-0.298 -7.586,-0.703 -3.522,-0.441 -6.19,-1.361 -8,-2.768 -1.813,-1.405 -2.956,-3.098 -3.432,-5.075 -0.478,-1.979 -0.467,-4.196 0.029,-6.65 0.496,-2.454 1.177,-5.015 2.04,-7.688 1,-3.015 2.109,-5.82 3.323,-8.411 1.214,-2.59 2.427,-5.18 3.641,-7.77 1.213,-2.592 2.489,-5.237 3.829,-7.94 1.336,-2.7 2.636,-5.728 3.894,-9.086 0.657,-1.144 0.894,-2.194 0.714,-3.153 -0.184,-0.955 -0.876,-1.734 -2.083,-2.337 -1.206,-0.601 -2.961,-0.938 -5.263,-1.014 -2.302,-0.07 -5.241,0.143 -8.816,0.647 -4.896,0.78 -8.311,0.023 -10.246,-2.277 -1.938,-2.298 -2.601,-5.176 -1.986,-8.628 0.612,-3.451 2.385,-7.016 5.317,-10.693 2.931,-3.671 6.884,-6.607 11.86,-8.802 1.938,-0.833 3.797,-1.26 5.572,-1.277 1.775,-0.013 3.264,0.308 4.468,0.969 1.203,0.66 2.005,1.594 2.409,2.798 0.402,1.207 0.208,2.557 -0.588,4.046 -0.673,1.38 -1.421,2.578 -2.247,3.595 -0.829,1.018 -1.938,2.315 -3.327,3.887 z"
           id="path4222" />
        <path
           style="fill:#4ab58c"
           inkscape:connector-curvature="0"
           d="m 5460.181,643.509 c -0.843,2.318 -1.368,4.74 -1.573,7.27 -0.206,2.533 -0.059,4.581 0.445,6.144 0.394,1.326 1.091,2.609 2.083,3.847 0.992,1.241 2.417,2.15 4.276,2.727 1.856,0.583 4.188,0.687 6.988,0.317 2.798,-0.372 6.206,-1.505 10.218,-3.402 3.774,-1.911 7.429,-4.24 10.958,-6.996 3.529,-2.751 6.8,-5.665 9.816,-8.746 3.015,-3.077 5.823,-6.165 8.427,-9.269 2.602,-3.101 4.867,-5.956 6.792,-8.565 0.249,-0.223 0.625,-0.586 1.127,-1.089 0.5,-0.501 0.923,-0.625 1.262,-0.371 0.347,0.14 0.676,0.572 0.99,1.3 0.313,0.727 -0.055,1.948 -1.099,3.661 -1.033,1.479 -2.068,3.045 -3.109,4.698 -1.043,1.657 -2.327,3.444 -3.857,5.365 -1.53,1.924 -3.397,4.034 -5.597,6.329 -2.203,2.298 -4.982,4.887 -8.341,7.766 -5.847,4.984 -11.292,8.661 -16.334,11.031 -5.045,2.37 -9.569,3.944 -13.575,4.716 -4.008,0.775 -7.482,1.048 -10.423,0.817 -2.944,-0.227 -5.292,-0.511 -7.046,-0.851 -9.375,-1.484 -15.01,-5.77 -16.907,-12.859 -1.896,-7.085 -0.425,-16.698 4.414,-28.835 4.562,-11.443 10.135,-20.935 16.72,-28.48 6.583,-7.54 14.405,-12.942 23.462,-16.205 3.858,-1.315 7.808,-2.123 11.846,-2.421 4.036,-0.302 7.723,-0.114 11.056,0.548 3.331,0.667 6.137,1.685 8.425,3.059 2.285,1.374 3.612,2.958 3.983,4.753 0.808,4.422 0.262,8.766 -1.639,13.031 -1.903,4.266 -4.086,8.278 -6.548,12.039 -0.646,0.909 -2.14,2.744 -4.486,5.505 -2.349,2.765 -5.533,5.684 -9.552,8.761 -4.021,3.08 -8.802,5.996 -14.34,8.751 -5.542,2.758 -11.829,4.641 -18.862,5.654 z m 36.538,-49.154 c -1.469,0.865 -3.59,2.277 -6.364,4.245 -2.774,1.969 -5.801,4.694 -9.075,8.168 -3.276,3.478 -6.659,7.806 -10.15,12.984 -3.492,5.181 -6.75,11.407 -9.77,18.682 2.709,0.156 5.545,-0.301 8.504,-1.373 2.959,-1.07 5.88,-2.497 8.763,-4.283 2.879,-1.785 5.599,-3.815 8.156,-6.092 2.554,-2.276 4.782,-4.484 6.679,-6.622 3.536,-3.934 6.401,-7.966 8.592,-12.098 2.189,-4.13 3.44,-7.899 3.756,-11.314 0.047,-0.821 -0.024,-1.654 -0.211,-2.493 -0.19,-0.838 -0.599,-1.423 -1.229,-1.756 -0.631,-0.331 -1.574,-0.385 -2.828,-0.163 -1.255,0.224 -2.865,0.928 -4.823,2.115 z"
           id="path4224" />
        <path
           style="fill:#4ab58c"
           inkscape:connector-curvature="0"
           d="m 5528.064,647.426 c -0.843,2.318 -1.368,4.74 -1.572,7.27 -0.207,2.531 -0.059,4.581 0.444,6.144 0.395,1.326 1.091,2.607 2.084,3.845 0.992,1.241 2.418,2.15 4.277,2.729 1.856,0.583 4.188,0.685 6.988,0.315 2.798,-0.371 6.206,-1.504 10.219,-3.402 3.773,-1.911 7.428,-4.241 10.957,-6.995 3.529,-2.751 6.801,-5.664 9.816,-8.746 3.016,-3.076 5.823,-6.166 8.428,-9.268 2.602,-3.103 4.867,-5.956 6.791,-8.565 0.249,-0.223 0.625,-0.586 1.128,-1.091 0.5,-0.501 0.922,-0.624 1.262,-0.37 0.347,0.14 0.677,0.572 0.99,1.301 0.313,0.727 -0.054,1.948 -1.099,3.662 -1.033,1.477 -2.068,3.045 -3.109,4.698 -1.044,1.656 -2.327,3.444 -3.857,5.365 -1.53,1.924 -3.397,4.032 -5.598,6.328 -2.202,2.298 -4.982,4.887 -8.341,7.766 -5.848,4.984 -11.292,8.661 -16.334,11.031 -5.045,2.369 -9.571,3.943 -13.575,4.716 -4.008,0.774 -7.483,1.047 -10.424,0.817 -2.944,-0.227 -5.292,-0.511 -7.046,-0.851 -9.375,-1.486 -15.01,-5.771 -16.907,-12.858 -1.896,-7.087 -0.425,-16.699 4.413,-28.835 4.563,-11.444 10.136,-20.936 16.72,-28.48 6.583,-7.541 14.405,-12.942 23.461,-16.206 3.86,-1.314 7.809,-2.123 11.847,-2.422 4.036,-0.3 7.722,-0.113 11.054,0.549 3.332,0.667 6.139,1.684 8.426,3.058 2.285,1.376 3.613,2.96 3.983,4.755 0.809,4.422 0.262,8.766 -1.64,13.031 -1.902,4.266 -4.085,8.277 -6.546,12.038 -0.646,0.909 -2.141,2.746 -4.487,5.506 -2.349,2.763 -5.532,5.684 -9.551,8.76 -4.022,3.082 -8.802,5.997 -14.34,8.753 -5.54,2.755 -11.827,4.638 -18.862,5.652 z m 36.539,-49.154 c -1.47,0.864 -3.59,2.275 -6.365,4.244 -2.774,1.969 -5.799,4.693 -9.074,8.168 -3.277,3.478 -6.658,7.807 -10.15,12.984 -3.492,5.181 -6.749,11.406 -9.769,18.68 2.709,0.157 5.544,-0.3 8.504,-1.372 2.959,-1.07 5.879,-2.498 8.761,-4.283 2.881,-1.786 5.6,-3.814 8.156,-6.092 2.555,-2.275 4.784,-4.484 6.679,-6.622 3.537,-3.933 6.402,-7.966 8.593,-12.097 2.188,-4.131 3.44,-7.9 3.756,-11.314 0.047,-0.821 -0.023,-1.655 -0.211,-2.494 -0.19,-0.838 -0.6,-1.423 -1.229,-1.757 -0.633,-0.33 -1.575,-0.384 -2.83,-0.164 -1.254,0.228 -2.863,0.933 -4.821,2.119 z"
           id="path4226" />
        <path
           style="fill:#4ab58c"
           inkscape:connector-curvature="0"
           d="m 5596.015,588.735 c 2.791,-1.26 5.439,-2.051 7.941,-2.382 2.142,-0.232 4.254,0.069 6.333,0.897 2.081,0.83 3.622,2.813 4.623,5.943 1,3.134 1.152,6.659 0.455,10.582 -0.701,3.922 -1.626,7.684 -2.779,11.28 -1.425,4.176 -3.206,8.389 -5.341,12.639 4.006,-5.917 8.286,-11.406 12.835,-16.465 1.896,-2.136 3.969,-4.263 6.221,-6.381 2.25,-2.114 4.582,-4.082 6.991,-5.894 2.411,-1.811 4.868,-3.414 7.373,-4.807 2.502,-1.391 5.076,-2.427 7.718,-3.102 5.154,-1.238 9.483,-1.432 12.982,-0.583 3.498,0.853 6.258,2.196 8.281,4.027 2.022,1.832 3.41,3.921 4.162,6.271 0.751,2.347 0.957,4.401 0.619,6.155 -0.359,2.108 -1.224,4.807 -2.595,8.1 -1.374,3.288 -3.029,6.86 -4.964,10.71 -1.938,3.852 -3.969,7.783 -6.091,11.798 -2.125,4.019 -4.153,7.892 -6.081,11.623 -1.931,3.731 -3.632,7.092 -5.105,10.083 -1.475,2.99 -2.494,5.295 -3.059,6.917 -0.857,2.553 -1.053,4.403 -0.587,5.555 0.466,1.152 1.286,1.788 2.461,1.914 1.174,0.13 2.55,-0.146 4.127,-0.827 1.575,-0.677 3.042,-1.509 4.401,-2.495 1.23,-0.874 2.797,-2.35 4.69,-4.43 1.894,-2.077 3.917,-4.386 6.075,-6.921 2.156,-2.536 4.348,-5.159 6.575,-7.87 2.224,-2.708 4.231,-5.223 6.022,-7.545 1.788,-2.32 3.288,-4.244 4.5,-5.77 1.212,-1.527 1.88,-2.346 2.004,-2.456 0.257,-0.342 0.755,-0.783 1.496,-1.334 0.743,-0.547 1.507,-0.503 2.3,0.132 0.68,0.513 0.747,1.346 0.21,2.496 l -0.81,1.728 c -4.875,6.576 -9.417,12.58 -13.632,18.015 -1.795,2.379 -3.643,4.729 -5.551,7.04 -1.907,2.316 -3.716,4.459 -5.425,6.428 -1.71,1.97 -3.259,3.687 -4.643,5.141 -1.386,1.459 -2.512,2.517 -3.376,3.177 -2.467,1.752 -5.345,2.973 -8.637,3.67 -3.294,0.698 -6.521,0.806 -9.686,0.328 -3.165,-0.476 -6.03,-1.529 -8.597,-3.158 -2.566,-1.625 -4.477,-3.894 -5.728,-6.803 -0.836,-1.939 -0.949,-4.607 -0.337,-8.001 0.609,-3.394 1.594,-7.152 2.957,-11.271 1.36,-4.117 2.965,-8.345 4.811,-12.671 1.847,-4.328 3.673,-8.329 5.483,-12.012 1.807,-3.679 3.408,-6.81 4.797,-9.39 1.39,-2.581 2.342,-4.21 2.854,-4.892 1.038,-1.594 1.699,-3.299 1.982,-5.118 0.281,-1.814 0.011,-3.28 -0.812,-4.391 -0.823,-1.111 -2.245,-1.578 -4.265,-1.4 -2.022,0.18 -4.754,1.412 -8.194,3.697 -2.336,1.522 -4.887,3.709 -7.651,6.563 -2.768,2.857 -5.612,6.035 -8.532,9.53 -2.923,3.498 -5.797,7.205 -8.624,11.121 -2.828,3.916 -5.47,7.667 -7.921,11.25 -2.456,3.585 -4.597,6.891 -6.426,9.916 -1.833,3.029 -3.211,5.404 -4.137,7.125 -1.454,2.637 -2.444,4.973 -2.976,7.01 -0.533,2.04 -0.835,3.708 -0.91,5.003 -0.089,1.534 0.01,2.899 0.296,4.097 -3.726,-1.042 -6.72,-2.428 -8.982,-4.156 -2.267,-1.725 -4.051,-3.602 -5.353,-5.628 -1.302,-2.027 -2.19,-4.029 -2.669,-6.008 -0.477,-1.978 -0.729,-3.736 -0.759,-5.277 -0.061,-0.949 0.356,-2.552 1.252,-4.805 0.9,-2.255 2.054,-4.849 3.465,-7.782 1.41,-2.934 2.984,-6.094 4.714,-9.484 1.732,-3.386 3.404,-6.721 5.012,-9.999 1.607,-3.277 3.056,-6.386 4.352,-9.326 1.291,-2.942 2.293,-5.456 3.008,-7.544 1.89,-6.158 3.233,-10.987 4.028,-14.488 0.471,-1.983 0.748,-3.683 0.829,-5.095 z"
           id="path4228" />
      </g>
    </g>
  </g>
</svg>
